<mxfile host="app.diagrams.net" modified="2023-04-25T14:49:30.900Z" agent="Mozilla/5.0 (Windows NT 10.0; Win64; x64) AppleWebKit/537.36 (KHTML, like Gecko) Chrome/112.0.0.0 Safari/537.36" etag="RB9OAcoddEJFhZSH3iaP" version="21.2.0" type="google">
  <diagram name="StrÃ¡nka-1" id="fnolnRlN68lO-TjaAvBT">
    <mxGraphModel grid="1" page="1" gridSize="10" guides="1" tooltips="1" connect="1" arrows="1" fold="1" pageScale="1" pageWidth="827" pageHeight="1169" math="0" shadow="0">
      <root>
        <mxCell id="0" />
        <mxCell id="1" parent="0" />
        <mxCell id="Co23_CJBl3k1IeWW2xwS-1" value="ProjectPhase" style="swimlane;fontStyle=0;childLayout=stackLayout;horizontal=1;startSize=26;fillColor=none;horizontalStack=0;resizeParent=1;resizeParentMax=0;resizeLast=0;collapsible=1;marginBottom=0;whiteSpace=wrap;html=1;" vertex="1" parent="1">
          <mxGeometry x="380" y="520" width="140" height="130" as="geometry" />
        </mxCell>
        <mxCell id="Co23_CJBl3k1IeWW2xwS-2" value="name" style="text;strokeColor=none;fillColor=none;align=left;verticalAlign=top;spacingLeft=4;spacingRight=4;overflow=hidden;rotatable=0;points=[[0,0.5],[1,0.5]];portConstraint=eastwest;whiteSpace=wrap;html=1;" vertex="1" parent="Co23_CJBl3k1IeWW2xwS-1">
          <mxGeometry y="26" width="140" height="26" as="geometry" />
        </mxCell>
        <mxCell id="Co23_CJBl3k1IeWW2xwS-3" value="startDate" style="text;strokeColor=none;fillColor=none;align=left;verticalAlign=top;spacingLeft=4;spacingRight=4;overflow=hidden;rotatable=0;points=[[0,0.5],[1,0.5]];portConstraint=eastwest;whiteSpace=wrap;html=1;" vertex="1" parent="Co23_CJBl3k1IeWW2xwS-1">
          <mxGeometry y="52" width="140" height="26" as="geometry" />
        </mxCell>
        <mxCell id="Co23_CJBl3k1IeWW2xwS-4" value="endDate" style="text;strokeColor=none;fillColor=none;align=left;verticalAlign=top;spacingLeft=4;spacingRight=4;overflow=hidden;rotatable=0;points=[[0,0.5],[1,0.5]];portConstraint=eastwest;whiteSpace=wrap;html=1;" vertex="1" parent="Co23_CJBl3k1IeWW2xwS-1">
          <mxGeometry y="78" width="140" height="26" as="geometry" />
        </mxCell>
        <mxCell id="Co23_CJBl3k1IeWW2xwS-5" value="finished" style="text;strokeColor=none;fillColor=none;align=left;verticalAlign=top;spacingLeft=4;spacingRight=4;overflow=hidden;rotatable=0;points=[[0,0.5],[1,0.5]];portConstraint=eastwest;whiteSpace=wrap;html=1;" vertex="1" parent="Co23_CJBl3k1IeWW2xwS-1">
          <mxGeometry y="104" width="140" height="26" as="geometry" />
        </mxCell>
        <mxCell id="XDW7q4FuZ3wVl9mGZIh6-3" style="edgeStyle=orthogonalEdgeStyle;rounded=0;orthogonalLoop=1;jettySize=auto;html=1;endArrow=block;endFill=0;endSize=16;" edge="1" parent="1" source="Co23_CJBl3k1IeWW2xwS-6" target="Co23_CJBl3k1IeWW2xwS-16">
          <mxGeometry relative="1" as="geometry">
            <Array as="points">
              <mxPoint x="690" y="280" />
              <mxPoint x="690" y="280" />
            </Array>
          </mxGeometry>
        </mxCell>
        <mxCell id="Co23_CJBl3k1IeWW2xwS-6" value="ProjectManager" style="swimlane;fontStyle=0;childLayout=stackLayout;horizontal=1;startSize=26;fillColor=none;horizontalStack=0;resizeParent=1;resizeParentMax=0;resizeLast=0;collapsible=1;marginBottom=0;whiteSpace=wrap;html=1;" vertex="1" parent="1">
          <mxGeometry x="630" y="305" width="150" height="52" as="geometry" />
        </mxCell>
        <mxCell id="htEpQ7yz_wEHEmsxDKDB-8" value="role == &quot;projectManager&quot;" style="text;strokeColor=none;fillColor=none;align=left;verticalAlign=top;spacingLeft=4;spacingRight=4;overflow=hidden;rotatable=0;points=[[0,0.5],[1,0.5]];portConstraint=eastwest;whiteSpace=wrap;html=1;" vertex="1" parent="Co23_CJBl3k1IeWW2xwS-6">
          <mxGeometry y="26" width="150" height="26" as="geometry" />
        </mxCell>
        <mxCell id="Co23_CJBl3k1IeWW2xwS-16" value="Employee" style="swimlane;fontStyle=0;childLayout=stackLayout;horizontal=1;startSize=26;fillColor=none;horizontalStack=0;resizeParent=1;resizeParentMax=0;resizeLast=0;collapsible=1;marginBottom=0;whiteSpace=wrap;html=1;" vertex="1" parent="1">
          <mxGeometry x="620" y="73" width="140" height="130" as="geometry" />
        </mxCell>
        <mxCell id="Co23_CJBl3k1IeWW2xwS-17" value="name" style="text;strokeColor=none;fillColor=none;align=left;verticalAlign=top;spacingLeft=4;spacingRight=4;overflow=hidden;rotatable=0;points=[[0,0.5],[1,0.5]];portConstraint=eastwest;whiteSpace=wrap;html=1;" vertex="1" parent="Co23_CJBl3k1IeWW2xwS-16">
          <mxGeometry y="26" width="140" height="26" as="geometry" />
        </mxCell>
        <mxCell id="Co23_CJBl3k1IeWW2xwS-18" value="email" style="text;strokeColor=none;fillColor=none;align=left;verticalAlign=top;spacingLeft=4;spacingRight=4;overflow=hidden;rotatable=0;points=[[0,0.5],[1,0.5]];portConstraint=eastwest;whiteSpace=wrap;html=1;" vertex="1" parent="Co23_CJBl3k1IeWW2xwS-16">
          <mxGeometry y="52" width="140" height="26" as="geometry" />
        </mxCell>
        <mxCell id="Co23_CJBl3k1IeWW2xwS-19" value="passwordHash" style="text;strokeColor=none;fillColor=none;align=left;verticalAlign=top;spacingLeft=4;spacingRight=4;overflow=hidden;rotatable=0;points=[[0,0.5],[1,0.5]];portConstraint=eastwest;whiteSpace=wrap;html=1;" vertex="1" parent="Co23_CJBl3k1IeWW2xwS-16">
          <mxGeometry y="78" width="140" height="26" as="geometry" />
        </mxCell>
        <mxCell id="XDW7q4FuZ3wVl9mGZIh6-1" value="role" style="text;strokeColor=none;fillColor=none;align=left;verticalAlign=top;spacingLeft=4;spacingRight=4;overflow=hidden;rotatable=0;points=[[0,0.5],[1,0.5]];portConstraint=eastwest;whiteSpace=wrap;html=1;" vertex="1" parent="Co23_CJBl3k1IeWW2xwS-16">
          <mxGeometry y="104" width="140" height="26" as="geometry" />
        </mxCell>
        <mxCell id="Co23_CJBl3k1IeWW2xwS-76" style="edgeStyle=orthogonalEdgeStyle;rounded=0;orthogonalLoop=1;jettySize=auto;html=1;endArrow=none;endFill=0;" edge="1" parent="1" source="Co23_CJBl3k1IeWW2xwS-21" target="Co23_CJBl3k1IeWW2xwS-55">
          <mxGeometry relative="1" as="geometry">
            <Array as="points">
              <mxPoint x="450" y="132" />
            </Array>
          </mxGeometry>
        </mxCell>
        <mxCell id="Co23_CJBl3k1IeWW2xwS-80" style="edgeStyle=orthogonalEdgeStyle;rounded=0;orthogonalLoop=1;jettySize=auto;html=1;endArrow=none;endFill=0;" edge="1" parent="1" source="Co23_CJBl3k1IeWW2xwS-21" target="Co23_CJBl3k1IeWW2xwS-39">
          <mxGeometry relative="1" as="geometry">
            <mxPoint x="230" y="345" as="targetPoint" />
            <Array as="points">
              <mxPoint x="260" y="345" />
              <mxPoint x="260" y="345" />
            </Array>
          </mxGeometry>
        </mxCell>
        <mxCell id="htEpQ7yz_wEHEmsxDKDB-5" value="participate on project" style="edgeStyle=orthogonalEdgeStyle;rounded=0;orthogonalLoop=1;jettySize=auto;html=1;exitX=0.75;exitY=0;exitDx=0;exitDy=0;entryX=0;entryY=0.269;entryDx=0;entryDy=0;entryPerimeter=0;endArrow=none;endFill=0;" edge="1" parent="1" source="Co23_CJBl3k1IeWW2xwS-21" target="Co23_CJBl3k1IeWW2xwS-17">
          <mxGeometry x="0.2899" y="-4" relative="1" as="geometry">
            <mxPoint as="offset" />
          </mxGeometry>
        </mxCell>
        <mxCell id="Co23_CJBl3k1IeWW2xwS-21" value="Project" style="swimlane;fontStyle=0;childLayout=stackLayout;horizontal=1;startSize=26;fillColor=none;horizontalStack=0;resizeParent=1;resizeParentMax=0;resizeLast=0;collapsible=1;marginBottom=0;whiteSpace=wrap;html=1;" vertex="1" parent="1">
          <mxGeometry x="380" y="280" width="140" height="130" as="geometry" />
        </mxCell>
        <mxCell id="Co23_CJBl3k1IeWW2xwS-22" value="name" style="text;strokeColor=none;fillColor=none;align=left;verticalAlign=top;spacingLeft=4;spacingRight=4;overflow=hidden;rotatable=0;points=[[0,0.5],[1,0.5]];portConstraint=eastwest;whiteSpace=wrap;html=1;" vertex="1" parent="Co23_CJBl3k1IeWW2xwS-21">
          <mxGeometry y="26" width="140" height="26" as="geometry" />
        </mxCell>
        <mxCell id="Co23_CJBl3k1IeWW2xwS-23" value="startDate" style="text;strokeColor=none;fillColor=none;align=left;verticalAlign=top;spacingLeft=4;spacingRight=4;overflow=hidden;rotatable=0;points=[[0,0.5],[1,0.5]];portConstraint=eastwest;whiteSpace=wrap;html=1;" vertex="1" parent="Co23_CJBl3k1IeWW2xwS-21">
          <mxGeometry y="52" width="140" height="26" as="geometry" />
        </mxCell>
        <mxCell id="Co23_CJBl3k1IeWW2xwS-24" value="endDate" style="text;strokeColor=none;fillColor=none;align=left;verticalAlign=top;spacingLeft=4;spacingRight=4;overflow=hidden;rotatable=0;points=[[0,0.5],[1,0.5]];portConstraint=eastwest;whiteSpace=wrap;html=1;" vertex="1" parent="Co23_CJBl3k1IeWW2xwS-21">
          <mxGeometry y="78" width="140" height="26" as="geometry" />
        </mxCell>
        <mxCell id="Co23_CJBl3k1IeWW2xwS-25" value="finished" style="text;strokeColor=none;fillColor=none;align=left;verticalAlign=top;spacingLeft=4;spacingRight=4;overflow=hidden;rotatable=0;points=[[0,0.5],[1,0.5]];portConstraint=eastwest;whiteSpace=wrap;html=1;" vertex="1" parent="Co23_CJBl3k1IeWW2xwS-21">
          <mxGeometry y="104" width="140" height="26" as="geometry" />
        </mxCell>
        <mxCell id="Co23_CJBl3k1IeWW2xwS-26" style="edgeStyle=orthogonalEdgeStyle;rounded=0;orthogonalLoop=1;jettySize=auto;html=1;endArrow=none;endFill=0;" edge="1" parent="1" source="Co23_CJBl3k1IeWW2xwS-6" target="Co23_CJBl3k1IeWW2xwS-21">
          <mxGeometry relative="1" as="geometry">
            <mxPoint x="620" y="319" as="sourcePoint" />
            <Array as="points">
              <mxPoint x="610" y="345" />
              <mxPoint x="610" y="345" />
            </Array>
          </mxGeometry>
        </mxCell>
        <mxCell id="Co23_CJBl3k1IeWW2xwS-30" value="&lt;font style=&quot;font-size: 9px;&quot;&gt;0..*&lt;/font&gt;" style="text;html=1;strokeColor=none;fillColor=none;align=center;verticalAlign=middle;whiteSpace=wrap;rounded=0;" vertex="1" parent="1">
          <mxGeometry x="520" y="330" width="20" height="10" as="geometry" />
        </mxCell>
        <mxCell id="Co23_CJBl3k1IeWW2xwS-31" value="&lt;font style=&quot;font-size: 9px;&quot;&gt;1&lt;/font&gt;" style="text;html=1;strokeColor=none;fillColor=none;align=center;verticalAlign=middle;whiteSpace=wrap;rounded=0;" vertex="1" parent="1">
          <mxGeometry x="610" y="330" width="20" height="10" as="geometry" />
        </mxCell>
        <mxCell id="Co23_CJBl3k1IeWW2xwS-32" style="edgeStyle=orthogonalEdgeStyle;rounded=0;orthogonalLoop=1;jettySize=auto;html=1;endArrow=none;endFill=0;" edge="1" parent="1" source="Co23_CJBl3k1IeWW2xwS-1" target="Co23_CJBl3k1IeWW2xwS-21">
          <mxGeometry relative="1" as="geometry">
            <mxPoint x="630" y="355" as="sourcePoint" />
            <mxPoint x="530" y="355" as="targetPoint" />
          </mxGeometry>
        </mxCell>
        <mxCell id="Co23_CJBl3k1IeWW2xwS-33" value="&lt;font style=&quot;font-size: 9px;&quot;&gt;0..*&lt;/font&gt;" style="text;html=1;strokeColor=none;fillColor=none;align=center;verticalAlign=middle;whiteSpace=wrap;rounded=0;" vertex="1" parent="1">
          <mxGeometry x="450" y="506" width="20" height="10" as="geometry" />
        </mxCell>
        <mxCell id="Co23_CJBl3k1IeWW2xwS-34" value="&lt;font style=&quot;font-size: 9px;&quot;&gt;1&lt;/font&gt;" style="text;html=1;strokeColor=none;fillColor=none;align=center;verticalAlign=middle;whiteSpace=wrap;rounded=0;" vertex="1" parent="1">
          <mxGeometry x="450" y="410" width="20" height="10" as="geometry" />
        </mxCell>
        <mxCell id="Co23_CJBl3k1IeWW2xwS-36" style="edgeStyle=orthogonalEdgeStyle;rounded=0;orthogonalLoop=1;jettySize=auto;html=1;entryX=1;entryY=0.75;entryDx=0;entryDy=0;endArrow=none;endFill=0;dashed=1;" edge="1" parent="1" source="Co23_CJBl3k1IeWW2xwS-35" target="Co23_CJBl3k1IeWW2xwS-33">
          <mxGeometry relative="1" as="geometry" />
        </mxCell>
        <mxCell id="Co23_CJBl3k1IeWW2xwS-35" value="&lt;font style=&quot;font-size: 8px;&quot;&gt;&lt;br&gt;0 because when we create project, no phase is defined&lt;/font&gt;" style="shape=note;size=20;whiteSpace=wrap;html=1;" vertex="1" parent="1">
          <mxGeometry x="540" y="460" width="60" height="90" as="geometry" />
        </mxCell>
        <mxCell id="Co23_CJBl3k1IeWW2xwS-38" style="edgeStyle=orthogonalEdgeStyle;rounded=0;orthogonalLoop=1;jettySize=auto;html=1;entryX=0.5;entryY=0;entryDx=0;entryDy=0;endArrow=none;endFill=0;dashed=1;" edge="1" parent="1" source="Co23_CJBl3k1IeWW2xwS-37" target="Co23_CJBl3k1IeWW2xwS-30">
          <mxGeometry relative="1" as="geometry" />
        </mxCell>
        <mxCell id="Co23_CJBl3k1IeWW2xwS-37" value="&lt;font style=&quot;font-size: 8px;&quot;&gt;&lt;br&gt;0 because when we create project manager he has no projects&lt;/font&gt;" style="shape=note;size=20;whiteSpace=wrap;html=1;" vertex="1" parent="1">
          <mxGeometry x="530" y="200" width="60" height="90" as="geometry" />
        </mxCell>
        <mxCell id="Co23_CJBl3k1IeWW2xwS-39" value="Risk" style="swimlane;fontStyle=0;childLayout=stackLayout;horizontal=1;startSize=26;fillColor=none;horizontalStack=0;resizeParent=1;resizeParentMax=0;resizeLast=0;collapsible=1;marginBottom=0;whiteSpace=wrap;html=1;" vertex="1" parent="1">
          <mxGeometry x="10" y="160" width="140" height="416" as="geometry" />
        </mxCell>
        <mxCell id="Co23_CJBl3k1IeWW2xwS-40" value="id&lt;br&gt;" style="text;strokeColor=none;fillColor=none;align=left;verticalAlign=top;spacingLeft=4;spacingRight=4;overflow=hidden;rotatable=0;points=[[0,0.5],[1,0.5]];portConstraint=eastwest;whiteSpace=wrap;html=1;" vertex="1" parent="Co23_CJBl3k1IeWW2xwS-39">
          <mxGeometry y="26" width="140" height="26" as="geometry" />
        </mxCell>
        <mxCell id="byHSck9F5IXSnZkChGnQ-10" value="itemId" style="text;strokeColor=none;fillColor=none;align=left;verticalAlign=top;spacingLeft=4;spacingRight=4;overflow=hidden;rotatable=0;points=[[0,0.5],[1,0.5]];portConstraint=eastwest;whiteSpace=wrap;html=1;" vertex="1" parent="Co23_CJBl3k1IeWW2xwS-39">
          <mxGeometry y="52" width="140" height="26" as="geometry" />
        </mxCell>
        <mxCell id="Co23_CJBl3k1IeWW2xwS-41" value="name" style="text;strokeColor=none;fillColor=none;align=left;verticalAlign=top;spacingLeft=4;spacingRight=4;overflow=hidden;rotatable=0;points=[[0,0.5],[1,0.5]];portConstraint=eastwest;whiteSpace=wrap;html=1;" vertex="1" parent="Co23_CJBl3k1IeWW2xwS-39">
          <mxGeometry y="78" width="140" height="26" as="geometry" />
        </mxCell>
        <mxCell id="Co23_CJBl3k1IeWW2xwS-42" value="description" style="text;strokeColor=none;fillColor=none;align=left;verticalAlign=top;spacingLeft=4;spacingRight=4;overflow=hidden;rotatable=0;points=[[0,0.5],[1,0.5]];portConstraint=eastwest;whiteSpace=wrap;html=1;" vertex="1" parent="Co23_CJBl3k1IeWW2xwS-39">
          <mxGeometry y="104" width="140" height="26" as="geometry" />
        </mxCell>
        <mxCell id="Co23_CJBl3k1IeWW2xwS-43" value="category" style="text;strokeColor=none;fillColor=none;align=left;verticalAlign=top;spacingLeft=4;spacingRight=4;overflow=hidden;rotatable=0;points=[[0,0.5],[1,0.5]];portConstraint=eastwest;whiteSpace=wrap;html=1;" vertex="1" parent="Co23_CJBl3k1IeWW2xwS-39">
          <mxGeometry y="130" width="140" height="26" as="geometry" />
        </mxCell>
        <mxCell id="Co23_CJBl3k1IeWW2xwS-44" value="cause" style="text;strokeColor=none;fillColor=none;align=left;verticalAlign=top;spacingLeft=4;spacingRight=4;overflow=hidden;rotatable=0;points=[[0,0.5],[1,0.5]];portConstraint=eastwest;whiteSpace=wrap;html=1;" vertex="1" parent="Co23_CJBl3k1IeWW2xwS-39">
          <mxGeometry y="156" width="140" height="26" as="geometry" />
        </mxCell>
        <mxCell id="Co23_CJBl3k1IeWW2xwS-45" value="vulnerabilities" style="text;strokeColor=none;fillColor=none;align=left;verticalAlign=top;spacingLeft=4;spacingRight=4;overflow=hidden;rotatable=0;points=[[0,0.5],[1,0.5]];portConstraint=eastwest;whiteSpace=wrap;html=1;" vertex="1" parent="Co23_CJBl3k1IeWW2xwS-39">
          <mxGeometry y="182" width="140" height="26" as="geometry" />
        </mxCell>
        <mxCell id="Co23_CJBl3k1IeWW2xwS-46" value="control" style="text;strokeColor=none;fillColor=none;align=left;verticalAlign=top;spacingLeft=4;spacingRight=4;overflow=hidden;rotatable=0;points=[[0,0.5],[1,0.5]];portConstraint=eastwest;whiteSpace=wrap;html=1;" vertex="1" parent="Co23_CJBl3k1IeWW2xwS-39">
          <mxGeometry y="208" width="140" height="26" as="geometry" />
        </mxCell>
        <mxCell id="Co23_CJBl3k1IeWW2xwS-47" value="owner" style="text;strokeColor=none;fillColor=none;align=left;verticalAlign=top;spacingLeft=4;spacingRight=4;overflow=hidden;rotatable=0;points=[[0,0.5],[1,0.5]];portConstraint=eastwest;whiteSpace=wrap;html=1;" vertex="1" parent="Co23_CJBl3k1IeWW2xwS-39">
          <mxGeometry y="234" width="140" height="26" as="geometry" />
        </mxCell>
        <mxCell id="Co23_CJBl3k1IeWW2xwS-48" value="probability" style="text;strokeColor=none;fillColor=none;align=left;verticalAlign=top;spacingLeft=4;spacingRight=4;overflow=hidden;rotatable=0;points=[[0,0.5],[1,0.5]];portConstraint=eastwest;whiteSpace=wrap;html=1;" vertex="1" parent="Co23_CJBl3k1IeWW2xwS-39">
          <mxGeometry y="260" width="140" height="26" as="geometry" />
        </mxCell>
        <mxCell id="Co23_CJBl3k1IeWW2xwS-49" value="impact" style="text;strokeColor=none;fillColor=none;align=left;verticalAlign=top;spacingLeft=4;spacingRight=4;overflow=hidden;rotatable=0;points=[[0,0.5],[1,0.5]];portConstraint=eastwest;whiteSpace=wrap;html=1;" vertex="1" parent="Co23_CJBl3k1IeWW2xwS-39">
          <mxGeometry y="286" width="140" height="26" as="geometry" />
        </mxCell>
        <mxCell id="Co23_CJBl3k1IeWW2xwS-50" value="risk" style="text;strokeColor=none;fillColor=none;align=left;verticalAlign=top;spacingLeft=4;spacingRight=4;overflow=hidden;rotatable=0;points=[[0,0.5],[1,0.5]];portConstraint=eastwest;whiteSpace=wrap;html=1;" vertex="1" parent="Co23_CJBl3k1IeWW2xwS-39">
          <mxGeometry y="312" width="140" height="26" as="geometry" />
        </mxCell>
        <mxCell id="Co23_CJBl3k1IeWW2xwS-51" value="state" style="text;strokeColor=none;fillColor=none;align=left;verticalAlign=top;spacingLeft=4;spacingRight=4;overflow=hidden;rotatable=0;points=[[0,0.5],[1,0.5]];portConstraint=eastwest;whiteSpace=wrap;html=1;" vertex="1" parent="Co23_CJBl3k1IeWW2xwS-39">
          <mxGeometry y="338" width="140" height="26" as="geometry" />
        </mxCell>
        <mxCell id="Co23_CJBl3k1IeWW2xwS-52" value="createDate" style="text;strokeColor=none;fillColor=none;align=left;verticalAlign=top;spacingLeft=4;spacingRight=4;overflow=hidden;rotatable=0;points=[[0,0.5],[1,0.5]];portConstraint=eastwest;whiteSpace=wrap;html=1;" vertex="1" parent="Co23_CJBl3k1IeWW2xwS-39">
          <mxGeometry y="364" width="140" height="26" as="geometry" />
        </mxCell>
        <mxCell id="K9EVWwQvvGRVz_PQoSdO-1" value="lastModifiedDate" style="text;strokeColor=none;fillColor=none;align=left;verticalAlign=top;spacingLeft=4;spacingRight=4;overflow=hidden;rotatable=0;points=[[0,0.5],[1,0.5]];portConstraint=eastwest;whiteSpace=wrap;html=1;" vertex="1" parent="Co23_CJBl3k1IeWW2xwS-39">
          <mxGeometry y="390" width="140" height="26" as="geometry" />
        </mxCell>
        <mxCell id="Co23_CJBl3k1IeWW2xwS-55" value="Opportunity" style="swimlane;fontStyle=0;childLayout=stackLayout;horizontal=1;startSize=26;fillColor=none;horizontalStack=0;resizeParent=1;resizeParentMax=0;resizeLast=0;collapsible=1;marginBottom=0;whiteSpace=wrap;html=1;" vertex="1" parent="1">
          <mxGeometry x="240" y="80" width="140" height="104" as="geometry" />
        </mxCell>
        <mxCell id="Co23_CJBl3k1IeWW2xwS-56" value="message" style="text;strokeColor=none;fillColor=none;align=left;verticalAlign=top;spacingLeft=4;spacingRight=4;overflow=hidden;rotatable=0;points=[[0,0.5],[1,0.5]];portConstraint=eastwest;whiteSpace=wrap;html=1;" vertex="1" parent="Co23_CJBl3k1IeWW2xwS-55">
          <mxGeometry y="26" width="140" height="26" as="geometry" />
        </mxCell>
        <mxCell id="Co23_CJBl3k1IeWW2xwS-57" value="priority" style="text;strokeColor=none;fillColor=none;align=left;verticalAlign=top;spacingLeft=4;spacingRight=4;overflow=hidden;rotatable=0;points=[[0,0.5],[1,0.5]];portConstraint=eastwest;whiteSpace=wrap;html=1;" vertex="1" parent="Co23_CJBl3k1IeWW2xwS-55">
          <mxGeometry y="52" width="140" height="26" as="geometry" />
        </mxCell>
        <mxCell id="Co23_CJBl3k1IeWW2xwS-59" value="isSolved" style="text;strokeColor=none;fillColor=none;align=left;verticalAlign=top;spacingLeft=4;spacingRight=4;overflow=hidden;rotatable=0;points=[[0,0.5],[1,0.5]];portConstraint=eastwest;whiteSpace=wrap;html=1;" vertex="1" parent="Co23_CJBl3k1IeWW2xwS-55">
          <mxGeometry y="78" width="140" height="26" as="geometry" />
        </mxCell>
        <mxCell id="Co23_CJBl3k1IeWW2xwS-60" value="RiskTemplate" style="swimlane;fontStyle=0;childLayout=stackLayout;horizontal=1;startSize=26;fillColor=none;horizontalStack=0;resizeParent=1;resizeParentMax=0;resizeLast=0;collapsible=1;marginBottom=0;whiteSpace=wrap;html=1;" vertex="1" parent="1">
          <mxGeometry x="672" y="400" width="140" height="312" as="geometry" />
        </mxCell>
        <mxCell id="Co23_CJBl3k1IeWW2xwS-61" value="id&lt;br&gt;" style="text;strokeColor=none;fillColor=none;align=left;verticalAlign=top;spacingLeft=4;spacingRight=4;overflow=hidden;rotatable=0;points=[[0,0.5],[1,0.5]];portConstraint=eastwest;whiteSpace=wrap;html=1;" vertex="1" parent="Co23_CJBl3k1IeWW2xwS-60">
          <mxGeometry y="26" width="140" height="26" as="geometry" />
        </mxCell>
        <mxCell id="Co23_CJBl3k1IeWW2xwS-62" value="name" style="text;strokeColor=none;fillColor=none;align=left;verticalAlign=top;spacingLeft=4;spacingRight=4;overflow=hidden;rotatable=0;points=[[0,0.5],[1,0.5]];portConstraint=eastwest;whiteSpace=wrap;html=1;" vertex="1" parent="Co23_CJBl3k1IeWW2xwS-60">
          <mxGeometry y="52" width="140" height="26" as="geometry" />
        </mxCell>
        <mxCell id="Co23_CJBl3k1IeWW2xwS-63" value="description" style="text;strokeColor=none;fillColor=none;align=left;verticalAlign=top;spacingLeft=4;spacingRight=4;overflow=hidden;rotatable=0;points=[[0,0.5],[1,0.5]];portConstraint=eastwest;whiteSpace=wrap;html=1;" vertex="1" parent="Co23_CJBl3k1IeWW2xwS-60">
          <mxGeometry y="78" width="140" height="26" as="geometry" />
        </mxCell>
        <mxCell id="Co23_CJBl3k1IeWW2xwS-64" value="category" style="text;strokeColor=none;fillColor=none;align=left;verticalAlign=top;spacingLeft=4;spacingRight=4;overflow=hidden;rotatable=0;points=[[0,0.5],[1,0.5]];portConstraint=eastwest;whiteSpace=wrap;html=1;" vertex="1" parent="Co23_CJBl3k1IeWW2xwS-60">
          <mxGeometry y="104" width="140" height="26" as="geometry" />
        </mxCell>
        <mxCell id="Co23_CJBl3k1IeWW2xwS-65" value="cause" style="text;strokeColor=none;fillColor=none;align=left;verticalAlign=top;spacingLeft=4;spacingRight=4;overflow=hidden;rotatable=0;points=[[0,0.5],[1,0.5]];portConstraint=eastwest;whiteSpace=wrap;html=1;" vertex="1" parent="Co23_CJBl3k1IeWW2xwS-60">
          <mxGeometry y="130" width="140" height="26" as="geometry" />
        </mxCell>
        <mxCell id="Co23_CJBl3k1IeWW2xwS-66" value="vulnerabilities" style="text;strokeColor=none;fillColor=none;align=left;verticalAlign=top;spacingLeft=4;spacingRight=4;overflow=hidden;rotatable=0;points=[[0,0.5],[1,0.5]];portConstraint=eastwest;whiteSpace=wrap;html=1;" vertex="1" parent="Co23_CJBl3k1IeWW2xwS-60">
          <mxGeometry y="156" width="140" height="26" as="geometry" />
        </mxCell>
        <mxCell id="Co23_CJBl3k1IeWW2xwS-67" value="control" style="text;strokeColor=none;fillColor=none;align=left;verticalAlign=top;spacingLeft=4;spacingRight=4;overflow=hidden;rotatable=0;points=[[0,0.5],[1,0.5]];portConstraint=eastwest;whiteSpace=wrap;html=1;" vertex="1" parent="Co23_CJBl3k1IeWW2xwS-60">
          <mxGeometry y="182" width="140" height="26" as="geometry" />
        </mxCell>
        <mxCell id="Co23_CJBl3k1IeWW2xwS-69" value="probability" style="text;strokeColor=none;fillColor=none;align=left;verticalAlign=top;spacingLeft=4;spacingRight=4;overflow=hidden;rotatable=0;points=[[0,0.5],[1,0.5]];portConstraint=eastwest;whiteSpace=wrap;html=1;" vertex="1" parent="Co23_CJBl3k1IeWW2xwS-60">
          <mxGeometry y="208" width="140" height="26" as="geometry" />
        </mxCell>
        <mxCell id="Co23_CJBl3k1IeWW2xwS-70" value="impact" style="text;strokeColor=none;fillColor=none;align=left;verticalAlign=top;spacingLeft=4;spacingRight=4;overflow=hidden;rotatable=0;points=[[0,0.5],[1,0.5]];portConstraint=eastwest;whiteSpace=wrap;html=1;" vertex="1" parent="Co23_CJBl3k1IeWW2xwS-60">
          <mxGeometry y="234" width="140" height="26" as="geometry" />
        </mxCell>
        <mxCell id="Co23_CJBl3k1IeWW2xwS-71" value="risk" style="text;strokeColor=none;fillColor=none;align=left;verticalAlign=top;spacingLeft=4;spacingRight=4;overflow=hidden;rotatable=0;points=[[0,0.5],[1,0.5]];portConstraint=eastwest;whiteSpace=wrap;html=1;" vertex="1" parent="Co23_CJBl3k1IeWW2xwS-60">
          <mxGeometry y="260" width="140" height="26" as="geometry" />
        </mxCell>
        <mxCell id="Co23_CJBl3k1IeWW2xwS-72" value="state" style="text;strokeColor=none;fillColor=none;align=left;verticalAlign=top;spacingLeft=4;spacingRight=4;overflow=hidden;rotatable=0;points=[[0,0.5],[1,0.5]];portConstraint=eastwest;whiteSpace=wrap;html=1;" vertex="1" parent="Co23_CJBl3k1IeWW2xwS-60">
          <mxGeometry y="286" width="140" height="26" as="geometry" />
        </mxCell>
        <mxCell id="Co23_CJBl3k1IeWW2xwS-77" value="&lt;font style=&quot;font-size: 9px;&quot;&gt;0..*&lt;/font&gt;" style="text;html=1;strokeColor=none;fillColor=none;align=center;verticalAlign=middle;whiteSpace=wrap;rounded=0;" vertex="1" parent="1">
          <mxGeometry x="380" y="120" width="20" height="10" as="geometry" />
        </mxCell>
        <mxCell id="Co23_CJBl3k1IeWW2xwS-78" value="&lt;font style=&quot;font-size: 9px;&quot;&gt;1&lt;/font&gt;" style="text;html=1;strokeColor=none;fillColor=none;align=center;verticalAlign=middle;whiteSpace=wrap;rounded=0;" vertex="1" parent="1">
          <mxGeometry x="450" y="270" width="20" height="10" as="geometry" />
        </mxCell>
        <mxCell id="Co23_CJBl3k1IeWW2xwS-84" style="edgeStyle=orthogonalEdgeStyle;rounded=0;orthogonalLoop=1;jettySize=auto;html=1;endArrow=none;endFill=0;dashed=1;" edge="1" parent="1" source="Co23_CJBl3k1IeWW2xwS-83" target="Co23_CJBl3k1IeWW2xwS-25">
          <mxGeometry relative="1" as="geometry" />
        </mxCell>
        <mxCell id="Co23_CJBl3k1IeWW2xwS-83" value="&lt;font style=&quot;font-size: 8px;&quot;&gt;&lt;br&gt;cannot be finished until all phases are finished&lt;/font&gt;" style="shape=note;size=20;whiteSpace=wrap;html=1;" vertex="1" parent="1">
          <mxGeometry x="550" y="357" width="60" height="80" as="geometry" />
        </mxCell>
        <mxCell id="Co23_CJBl3k1IeWW2xwS-86" style="edgeStyle=orthogonalEdgeStyle;rounded=0;orthogonalLoop=1;jettySize=auto;html=1;dashed=1;endArrow=none;endFill=0;" edge="1" parent="1" source="Co23_CJBl3k1IeWW2xwS-85" target="Co23_CJBl3k1IeWW2xwS-39">
          <mxGeometry relative="1" as="geometry" />
        </mxCell>
        <mxCell id="Co23_CJBl3k1IeWW2xwS-85" value="&lt;br&gt;Around 20-30 risks per project" style="shape=note;size=20;whiteSpace=wrap;html=1;" vertex="1" parent="1">
          <mxGeometry x="30" y="30" width="60" height="90" as="geometry" />
        </mxCell>
        <mxCell id="Co23_CJBl3k1IeWW2xwS-89" style="edgeStyle=orthogonalEdgeStyle;rounded=0;orthogonalLoop=1;jettySize=auto;html=1;endArrow=none;endFill=0;dashed=1;" edge="1" parent="1" source="Co23_CJBl3k1IeWW2xwS-87" target="Co23_CJBl3k1IeWW2xwS-39">
          <mxGeometry relative="1" as="geometry">
            <Array as="points">
              <mxPoint x="40" y="660" />
              <mxPoint x="40" y="660" />
            </Array>
          </mxGeometry>
        </mxCell>
        <mxCell id="Co23_CJBl3k1IeWW2xwS-90" style="edgeStyle=orthogonalEdgeStyle;rounded=0;orthogonalLoop=1;jettySize=auto;html=1;dashed=1;endArrow=none;endFill=0;" edge="1" parent="1" source="Co23_CJBl3k1IeWW2xwS-87" target="Co23_CJBl3k1IeWW2xwS-60">
          <mxGeometry relative="1" as="geometry">
            <mxPoint x="230" y="860" as="sourcePoint" />
            <Array as="points">
              <mxPoint x="740" y="860" />
            </Array>
          </mxGeometry>
        </mxCell>
        <mxCell id="Co23_CJBl3k1IeWW2xwS-87" value="&lt;br&gt;&lt;br&gt;Probablity, Impact â {tiny(1), small(2), medium(3), high(4), critical(5)}" style="shape=note;whiteSpace=wrap;html=1;backgroundOutline=1;darkOpacity=0.05;" vertex="1" parent="1">
          <mxGeometry x="10" y="800" width="140" height="100" as="geometry" />
        </mxCell>
        <mxCell id="Co23_CJBl3k1IeWW2xwS-92" style="edgeStyle=orthogonalEdgeStyle;rounded=0;orthogonalLoop=1;jettySize=auto;html=1;dashed=1;endArrow=none;endFill=0;" edge="1" parent="1" source="Co23_CJBl3k1IeWW2xwS-91" target="Co23_CJBl3k1IeWW2xwS-39">
          <mxGeometry relative="1" as="geometry">
            <Array as="points">
              <mxPoint x="120" y="610" />
              <mxPoint x="120" y="610" />
            </Array>
          </mxGeometry>
        </mxCell>
        <mxCell id="Co23_CJBl3k1IeWW2xwS-93" style="edgeStyle=orthogonalEdgeStyle;rounded=0;orthogonalLoop=1;jettySize=auto;html=1;dashed=1;endArrow=none;endFill=0;" edge="1" parent="1" source="Co23_CJBl3k1IeWW2xwS-91" target="Co23_CJBl3k1IeWW2xwS-60">
          <mxGeometry relative="1" as="geometry">
            <mxPoint x="330" y="745" as="sourcePoint" />
            <Array as="points">
              <mxPoint x="710" y="760" />
            </Array>
          </mxGeometry>
        </mxCell>
        <mxCell id="Co23_CJBl3k1IeWW2xwS-91" value="Risk is calculated:&lt;br&gt;Probablity&amp;nbsp;Ã Impact&lt;br&gt;&amp;nbsp;Numerical value is defined in brackets" style="shape=note;whiteSpace=wrap;html=1;backgroundOutline=1;darkOpacity=0.05;" vertex="1" parent="1">
          <mxGeometry x="80" y="700" width="170" height="90" as="geometry" />
        </mxCell>
        <mxCell id="Co23_CJBl3k1IeWW2xwS-95" style="edgeStyle=orthogonalEdgeStyle;rounded=0;orthogonalLoop=1;jettySize=auto;html=1;dashed=1;endArrow=none;endFill=0;" edge="1" parent="1" source="Co23_CJBl3k1IeWW2xwS-94" target="Co23_CJBl3k1IeWW2xwS-39">
          <mxGeometry relative="1" as="geometry">
            <mxPoint x="230" y="459" as="targetPoint" />
            <Array as="points">
              <mxPoint x="285" y="490" />
            </Array>
          </mxGeometry>
        </mxCell>
        <mxCell id="Co23_CJBl3k1IeWW2xwS-94" value="&lt;br&gt;&lt;br&gt;Client mentioned primary filtration by risk value on equation, maybe create database index when filtering will be on server side" style="shape=note;whiteSpace=wrap;html=1;backgroundOutline=1;darkOpacity=0.05;fontSize=10;" vertex="1" parent="1">
          <mxGeometry x="200" y="560" width="170" height="90" as="geometry" />
        </mxCell>
        <mxCell id="XDW7q4FuZ3wVl9mGZIh6-5" style="edgeStyle=orthogonalEdgeStyle;rounded=0;orthogonalLoop=1;jettySize=auto;html=1;dashed=1;endArrow=none;endFill=0;" edge="1" parent="1" source="XDW7q4FuZ3wVl9mGZIh6-4" target="Co23_CJBl3k1IeWW2xwS-60">
          <mxGeometry relative="1" as="geometry">
            <Array as="points">
              <mxPoint x="652" y="655" />
              <mxPoint x="652" y="569" />
            </Array>
          </mxGeometry>
        </mxCell>
        <mxCell id="XDW7q4FuZ3wVl9mGZIh6-4" value="User want to define risk identifier, need to handle templating" style="shape=note;size=20;whiteSpace=wrap;html=1;" vertex="1" parent="1">
          <mxGeometry x="550" y="600" width="90" height="110" as="geometry" />
        </mxCell>
        <mxCell id="htEpQ7yz_wEHEmsxDKDB-2" style="edgeStyle=orthogonalEdgeStyle;rounded=0;orthogonalLoop=1;jettySize=auto;html=1;endArrow=none;endFill=0;dashed=1;" edge="1" parent="1" source="htEpQ7yz_wEHEmsxDKDB-1" target="byHSck9F5IXSnZkChGnQ-10">
          <mxGeometry relative="1" as="geometry" />
        </mxCell>
        <mxCell id="htEpQ7yz_wEHEmsxDKDB-1" value="&lt;br&gt;itemId should be unique for project" style="shape=note;size=20;whiteSpace=wrap;html=1;" vertex="1" parent="1">
          <mxGeometry x="210" y="200" width="60" height="90" as="geometry" />
        </mxCell>
        <mxCell id="htEpQ7yz_wEHEmsxDKDB-4" style="edgeStyle=orthogonalEdgeStyle;rounded=0;orthogonalLoop=1;jettySize=auto;html=1;endArrow=none;endFill=0;dashed=1;" edge="1" parent="1" source="htEpQ7yz_wEHEmsxDKDB-3" target="Co23_CJBl3k1IeWW2xwS-47">
          <mxGeometry relative="1" as="geometry" />
        </mxCell>
        <mxCell id="htEpQ7yz_wEHEmsxDKDB-3" value="Owner must be assigned to project" style="shape=note;size=20;whiteSpace=wrap;html=1;" vertex="1" parent="1">
          <mxGeometry x="214" y="362" width="60" height="90" as="geometry" />
        </mxCell>
        <mxCell id="htEpQ7yz_wEHEmsxDKDB-6" value="&lt;font style=&quot;font-size: 9px;&quot;&gt;0..*&lt;/font&gt;" style="text;html=1;strokeColor=none;fillColor=none;align=center;verticalAlign=middle;whiteSpace=wrap;rounded=0;" vertex="1" parent="1">
          <mxGeometry x="490" y="270" width="20" height="10" as="geometry" />
        </mxCell>
        <mxCell id="htEpQ7yz_wEHEmsxDKDB-7" value="&lt;font style=&quot;font-size: 9px;&quot;&gt;0..*&lt;/font&gt;" style="text;html=1;strokeColor=none;fillColor=none;align=center;verticalAlign=middle;whiteSpace=wrap;rounded=0;" vertex="1" parent="1">
          <mxGeometry x="600" y="110" width="20" height="10" as="geometry" />
        </mxCell>
        <mxCell id="Co23_CJBl3k1IeWW2xwS-82" value="&lt;font style=&quot;font-size: 9px;&quot;&gt;1&lt;/font&gt;" style="text;html=1;strokeColor=none;fillColor=none;align=center;verticalAlign=middle;whiteSpace=wrap;rounded=0;" vertex="1" parent="1">
          <mxGeometry x="360" y="332" width="20" height="10" as="geometry" />
        </mxCell>
        <mxCell id="byHSck9F5IXSnZkChGnQ-5" style="edgeStyle=orthogonalEdgeStyle;rounded=0;orthogonalLoop=1;jettySize=auto;html=1;entryX=0.25;entryY=0;entryDx=0;entryDy=0;startArrow=none;startFill=0;endArrow=none;endFill=0;" edge="1" parent="1" source="Co23_CJBl3k1IeWW2xwS-39" target="Co23_CJBl3k1IeWW2xwS-1">
          <mxGeometry relative="1" as="geometry">
            <Array as="points">
              <mxPoint x="415" y="480" />
            </Array>
          </mxGeometry>
        </mxCell>
        <mxCell id="byHSck9F5IXSnZkChGnQ-6" value="&lt;font style=&quot;font-size: 9px;&quot;&gt;0..*&lt;/font&gt;" style="text;html=1;strokeColor=none;fillColor=none;align=center;verticalAlign=middle;whiteSpace=wrap;rounded=0;" vertex="1" parent="1">
          <mxGeometry x="150" y="332" width="20" height="10" as="geometry" />
        </mxCell>
        <mxCell id="byHSck9F5IXSnZkChGnQ-7" value="&lt;font style=&quot;font-size: 9px;&quot;&gt;0..*&lt;/font&gt;" style="text;html=1;strokeColor=none;fillColor=none;align=center;verticalAlign=middle;whiteSpace=wrap;rounded=0;" vertex="1" parent="1">
          <mxGeometry x="155" y="470" width="20" height="10" as="geometry" />
        </mxCell>
        <mxCell id="byHSck9F5IXSnZkChGnQ-8" value="&lt;font style=&quot;font-size: 9px;&quot;&gt;0..1&lt;/font&gt;" style="text;html=1;strokeColor=none;fillColor=none;align=center;verticalAlign=middle;whiteSpace=wrap;rounded=0;" vertex="1" parent="1">
          <mxGeometry x="394" y="510" width="20" height="10" as="geometry" />
        </mxCell>
        <mxCell id="byHSck9F5IXSnZkChGnQ-12" style="edgeStyle=orthogonalEdgeStyle;rounded=0;orthogonalLoop=1;jettySize=auto;html=1;dashed=1;endArrow=none;endFill=0;" edge="1" parent="1" source="byHSck9F5IXSnZkChGnQ-11" target="Co23_CJBl3k1IeWW2xwS-43">
          <mxGeometry relative="1" as="geometry" />
        </mxCell>
        <mxCell id="byHSck9F5IXSnZkChGnQ-11" value="&lt;br&gt;distinct list from default form model&lt;br&gt;&lt;br&gt;category of risk" style="shape=note;size=20;whiteSpace=wrap;html=1;" vertex="1" parent="1">
          <mxGeometry x="-160" y="194" width="80" height="116" as="geometry" />
        </mxCell>
        <mxCell id="byHSck9F5IXSnZkChGnQ-13" value="&lt;br&gt;distinct list from default form model" style="shape=note;size=20;whiteSpace=wrap;html=1;" vertex="1" parent="1">
          <mxGeometry x="-180" y="335" width="60" height="102" as="geometry" />
        </mxCell>
        <mxCell id="byHSck9F5IXSnZkChGnQ-14" style="edgeStyle=orthogonalEdgeStyle;rounded=0;orthogonalLoop=1;jettySize=auto;html=1;dashed=1;endArrow=none;endFill=0;exitX=0.5;exitY=0;exitDx=0;exitDy=0;exitPerimeter=0;" edge="1" parent="1" source="byHSck9F5IXSnZkChGnQ-13" target="Co23_CJBl3k1IeWW2xwS-44">
          <mxGeometry relative="1" as="geometry">
            <mxPoint x="-90" y="313" as="sourcePoint" />
            <mxPoint x="20" y="313" as="targetPoint" />
            <Array as="points">
              <mxPoint x="-140" y="330" />
              <mxPoint x="-45" y="330" />
              <mxPoint x="-45" y="329" />
            </Array>
          </mxGeometry>
        </mxCell>
        <mxCell id="byHSck9F5IXSnZkChGnQ-15" style="edgeStyle=orthogonalEdgeStyle;rounded=0;orthogonalLoop=1;jettySize=auto;html=1;dashed=1;endArrow=none;endFill=0;entryX=-0.009;entryY=0.609;entryDx=0;entryDy=0;entryPerimeter=0;" edge="1" parent="1" source="byHSck9F5IXSnZkChGnQ-13" target="Co23_CJBl3k1IeWW2xwS-45">
          <mxGeometry relative="1" as="geometry">
            <mxPoint x="-90" y="320" as="sourcePoint" />
            <mxPoint x="20" y="339" as="targetPoint" />
            <Array as="points">
              <mxPoint x="-50" y="380" />
              <mxPoint x="-50" y="358" />
            </Array>
          </mxGeometry>
        </mxCell>
        <mxCell id="byHSck9F5IXSnZkChGnQ-17" style="edgeStyle=orthogonalEdgeStyle;rounded=0;orthogonalLoop=1;jettySize=auto;html=1;endArrow=none;endFill=0;dashed=1;" edge="1" parent="1" source="byHSck9F5IXSnZkChGnQ-16" target="Co23_CJBl3k1IeWW2xwS-46">
          <mxGeometry relative="1" as="geometry">
            <Array as="points">
              <mxPoint x="-40" y="521" />
              <mxPoint x="-40" y="380" />
            </Array>
          </mxGeometry>
        </mxCell>
        <mxCell id="byHSck9F5IXSnZkChGnQ-16" value="textfield" style="shape=note;size=20;whiteSpace=wrap;html=1;" vertex="1" parent="1">
          <mxGeometry x="-170" y="470" width="60" height="80" as="geometry" />
        </mxCell>
        <mxCell id="byHSck9F5IXSnZkChGnQ-19" style="edgeStyle=orthogonalEdgeStyle;rounded=0;orthogonalLoop=1;jettySize=auto;html=1;dashed=1;endArrow=none;endFill=0;" edge="1" parent="1" source="byHSck9F5IXSnZkChGnQ-18" target="Co23_CJBl3k1IeWW2xwS-51">
          <mxGeometry relative="1" as="geometry">
            <Array as="points">
              <mxPoint x="-20" y="610" />
              <mxPoint x="-20" y="511" />
            </Array>
          </mxGeometry>
        </mxCell>
        <mxCell id="byHSck9F5IXSnZkChGnQ-18" value="concept, active, closed,&lt;br&gt;discarded, act&lt;br&gt;&lt;br&gt;aka tags&lt;br&gt;&lt;br&gt;when tag is discarded, its doesn&#39;t included in matrix" style="shape=note;size=20;whiteSpace=wrap;html=1;" vertex="1" parent="1">
          <mxGeometry x="-190" y="562.5" width="140" height="147.5" as="geometry" />
        </mxCell>
        <mxCell id="loHD_Z7KlwfKp5WNv8tM-2" style="edgeStyle=orthogonalEdgeStyle;rounded=0;orthogonalLoop=1;jettySize=auto;html=1;dashed=1;endArrow=none;endFill=0;" edge="1" parent="1" source="loHD_Z7KlwfKp5WNv8tM-1" target="Co23_CJBl3k1IeWW2xwS-57">
          <mxGeometry relative="1" as="geometry" />
        </mxCell>
        <mxCell id="loHD_Z7KlwfKp5WNv8tM-1" value="rename to&amp;nbsp;potential,&lt;br&gt;low, medium, high" style="shape=note;size=20;whiteSpace=wrap;html=1;" vertex="1" parent="1">
          <mxGeometry x="130" y="20" width="90" height="90" as="geometry" />
        </mxCell>
      </root>
    </mxGraphModel>
  </diagram>
</mxfile>
